<?xml version="1.0" encoding="UTF-8"?>
<svg version="1.1" xmlns="http://www.w3.org/2000/svg" width="157" height="212">
<path d="M0 0 C0.83426514 -0.00630432 1.66853027 -0.01260864 2.52807617 -0.019104 C3.43017822 -0.01505554 4.33228027 -0.01100708 5.26171875 -0.00683594 C6.64870972 -0.00970612 6.64870972 -0.00970612 8.0637207 -0.01263428 C10.02067334 -0.0139966 11.97763499 -0.0102969 13.93457031 -0.00195312 C16.93705465 0.00874572 19.93894062 -0.00184685 22.94140625 -0.01464844 C24.83984508 -0.01332685 26.73828353 -0.01076448 28.63671875 -0.00683594 C29.5388208 -0.0108844 30.44092285 -0.01493286 31.37036133 -0.019104 C32.62175903 -0.00964752 32.62175903 -0.00964752 33.8984375 0 C34.63408936 0.00159119 35.36974121 0.00318237 36.12768555 0.00482178 C37.94921875 0.25878906 37.94921875 0.25878906 39.94921875 2.25878906 C40.20318604 4.08032227 40.20318604 4.08032227 40.20800781 6.30957031 C40.21431213 7.14383545 40.22061646 7.97810059 40.22711182 8.83764648 C40.22306335 9.73974854 40.21901489 10.64185059 40.21484375 11.57128906 C40.21771393 12.95828003 40.21771393 12.95828003 40.22064209 14.37329102 C40.22200441 16.33024365 40.21830471 18.2872053 40.20996094 20.24414062 C40.19926209 23.24662496 40.20985466 26.24851093 40.22265625 29.25097656 C40.22133466 31.14941539 40.21877229 33.04785384 40.21484375 34.94628906 C40.21889221 35.84839111 40.22294067 36.75049316 40.22711182 37.67993164 C40.2208075 38.51419678 40.21450317 39.34846191 40.20800781 40.20800781 C40.20641663 40.94365967 40.20482544 41.67931152 40.20318604 42.43725586 C39.94921875 44.25878906 39.94921875 44.25878906 37.94921875 46.25878906 C36.12768555 46.51275635 36.12768555 46.51275635 33.8984375 46.51757812 C33.06417236 46.52388245 32.22990723 46.53018677 31.37036133 46.53668213 C30.46825928 46.53263367 29.56615723 46.52858521 28.63671875 46.52441406 C27.24972778 46.52728424 27.24972778 46.52728424 25.8347168 46.5302124 C23.87776416 46.53157472 21.92080251 46.52787502 19.96386719 46.51953125 C16.96138285 46.50883241 13.95949688 46.51942497 10.95703125 46.53222656 C9.05859242 46.53090498 7.16015397 46.5283426 5.26171875 46.52441406 C4.3596167 46.52846252 3.45751465 46.53251099 2.52807617 46.53668213 C1.27667847 46.52722565 1.27667847 46.52722565 0 46.51757812 C-0.73565186 46.51598694 -1.47130371 46.51439575 -2.22924805 46.51275635 C-4.05078125 46.25878906 -4.05078125 46.25878906 -6.05078125 44.25878906 C-6.30474854 42.43725586 -6.30474854 42.43725586 -6.30957031 40.20800781 C-6.31587463 39.37374268 -6.32217896 38.53947754 -6.32867432 37.67993164 C-6.32462585 36.77782959 -6.32057739 35.87572754 -6.31640625 34.94628906 C-6.3183197 34.02162842 -6.32023315 33.09696777 -6.32220459 32.14428711 C-6.32356691 30.18733447 -6.31986721 28.23037282 -6.31152344 26.2734375 C-6.30082459 23.27095317 -6.31141716 20.2690672 -6.32421875 17.26660156 C-6.32289716 15.36816274 -6.32033479 13.46972428 -6.31640625 11.57128906 C-6.32045471 10.66918701 -6.32450317 9.76708496 -6.32867432 8.83764648 C-6.32237 8.00338135 -6.31606567 7.16911621 -6.30957031 6.30957031 C-6.30797913 5.57391846 -6.30638794 4.8382666 -6.30474854 4.08032227 C-5.76069598 0.17820631 -3.36827159 0.00728544 0 0 Z " fill="#369731" transform="translate(8.05078125,55.7412109375)"/>
<path d="M0 0 C0.83426514 -0.00630432 1.66853027 -0.01260864 2.52807617 -0.019104 C3.43017822 -0.01505554 4.33228027 -0.01100708 5.26171875 -0.00683594 C6.64870972 -0.00970612 6.64870972 -0.00970612 8.0637207 -0.01263428 C10.02067334 -0.0139966 11.97763499 -0.0102969 13.93457031 -0.00195312 C16.93705465 0.00874572 19.93894062 -0.00184685 22.94140625 -0.01464844 C24.83984508 -0.01332685 26.73828353 -0.01076448 28.63671875 -0.00683594 C29.5388208 -0.0108844 30.44092285 -0.01493286 31.37036133 -0.019104 C32.62175903 -0.00964752 32.62175903 -0.00964752 33.8984375 0 C34.63408936 0.00159119 35.36974121 0.00318237 36.12768555 0.00482178 C37.94921875 0.25878906 37.94921875 0.25878906 39.94921875 2.25878906 C40.20318604 4.08032227 40.20318604 4.08032227 40.20800781 6.30957031 C40.21431213 7.14383545 40.22061646 7.97810059 40.22711182 8.83764648 C40.22306335 9.73974854 40.21901489 10.64185059 40.21484375 11.57128906 C40.21771393 12.95828003 40.21771393 12.95828003 40.22064209 14.37329102 C40.22200441 16.33024365 40.21830471 18.2872053 40.20996094 20.24414062 C40.19926209 23.24662496 40.20985466 26.24851093 40.22265625 29.25097656 C40.22133466 31.14941539 40.21877229 33.04785384 40.21484375 34.94628906 C40.21889221 35.84839111 40.22294067 36.75049316 40.22711182 37.67993164 C40.2208075 38.51419678 40.21450317 39.34846191 40.20800781 40.20800781 C40.20641663 40.94365967 40.20482544 41.67931152 40.20318604 42.43725586 C39.94921875 44.25878906 39.94921875 44.25878906 37.94921875 46.25878906 C36.12768555 46.51275635 36.12768555 46.51275635 33.8984375 46.51757812 C33.06417236 46.52388245 32.22990723 46.53018677 31.37036133 46.53668213 C30.46825928 46.53263367 29.56615723 46.52858521 28.63671875 46.52441406 C27.24972778 46.52728424 27.24972778 46.52728424 25.8347168 46.5302124 C23.87776416 46.53157472 21.92080251 46.52787502 19.96386719 46.51953125 C16.96138285 46.50883241 13.95949688 46.51942497 10.95703125 46.53222656 C9.05859242 46.53090498 7.16015397 46.5283426 5.26171875 46.52441406 C4.3596167 46.52846252 3.45751465 46.53251099 2.52807617 46.53668213 C1.27667847 46.52722565 1.27667847 46.52722565 0 46.51757812 C-0.73565186 46.51598694 -1.47130371 46.51439575 -2.22924805 46.51275635 C-4.05078125 46.25878906 -4.05078125 46.25878906 -6.05078125 44.25878906 C-6.30474854 42.43725586 -6.30474854 42.43725586 -6.30957031 40.20800781 C-6.31587463 39.37374268 -6.32217896 38.53947754 -6.32867432 37.67993164 C-6.32462585 36.77782959 -6.32057739 35.87572754 -6.31640625 34.94628906 C-6.3183197 34.02162842 -6.32023315 33.09696777 -6.32220459 32.14428711 C-6.32356691 30.18733447 -6.31986721 28.23037282 -6.31152344 26.2734375 C-6.30082459 23.27095317 -6.31141716 20.2690672 -6.32421875 17.26660156 C-6.32289716 15.36816274 -6.32033479 13.46972428 -6.31640625 11.57128906 C-6.32045471 10.66918701 -6.32450317 9.76708496 -6.32867432 8.83764648 C-6.32237 8.00338135 -6.31606567 7.16911621 -6.30957031 6.30957031 C-6.30797913 5.57391846 -6.30638794 4.8382666 -6.30474854 4.08032227 C-5.76069598 0.17820631 -3.36827159 0.00728544 0 0 Z " fill="#369731" transform="translate(62.05078125,55.7412109375)"/>
<path d="M0 0 C0.83426514 -0.00630432 1.66853027 -0.01260864 2.52807617 -0.019104 C3.43017822 -0.01505554 4.33228027 -0.01100708 5.26171875 -0.00683594 C6.64870972 -0.00970612 6.64870972 -0.00970612 8.0637207 -0.01263428 C10.02067334 -0.0139966 11.97763499 -0.0102969 13.93457031 -0.00195312 C16.93705465 0.00874572 19.93894062 -0.00184685 22.94140625 -0.01464844 C24.83984508 -0.01332685 26.73828353 -0.01076448 28.63671875 -0.00683594 C29.5388208 -0.0108844 30.44092285 -0.01493286 31.37036133 -0.019104 C32.62175903 -0.00964752 32.62175903 -0.00964752 33.8984375 0 C34.63408936 0.00159119 35.36974121 0.00318237 36.12768555 0.00482178 C37.94921875 0.25878906 37.94921875 0.25878906 39.94921875 2.25878906 C40.20318604 4.08032227 40.20318604 4.08032227 40.20800781 6.30957031 C40.21431213 7.14383545 40.22061646 7.97810059 40.22711182 8.83764648 C40.22306335 9.73974854 40.21901489 10.64185059 40.21484375 11.57128906 C40.21771393 12.95828003 40.21771393 12.95828003 40.22064209 14.37329102 C40.22200441 16.33024365 40.21830471 18.2872053 40.20996094 20.24414062 C40.19926209 23.24662496 40.20985466 26.24851093 40.22265625 29.25097656 C40.22133466 31.14941539 40.21877229 33.04785384 40.21484375 34.94628906 C40.21889221 35.84839111 40.22294067 36.75049316 40.22711182 37.67993164 C40.2208075 38.51419678 40.21450317 39.34846191 40.20800781 40.20800781 C40.20641663 40.94365967 40.20482544 41.67931152 40.20318604 42.43725586 C39.94921875 44.25878906 39.94921875 44.25878906 37.94921875 46.25878906 C36.12768555 46.51275635 36.12768555 46.51275635 33.8984375 46.51757812 C33.06417236 46.52388245 32.22990723 46.53018677 31.37036133 46.53668213 C30.46825928 46.53263367 29.56615723 46.52858521 28.63671875 46.52441406 C27.24972778 46.52728424 27.24972778 46.52728424 25.8347168 46.5302124 C23.87776416 46.53157472 21.92080251 46.52787502 19.96386719 46.51953125 C16.96138285 46.50883241 13.95949688 46.51942497 10.95703125 46.53222656 C9.05859242 46.53090498 7.16015397 46.5283426 5.26171875 46.52441406 C4.3596167 46.52846252 3.45751465 46.53251099 2.52807617 46.53668213 C1.27667847 46.52722565 1.27667847 46.52722565 0 46.51757812 C-0.73565186 46.51598694 -1.47130371 46.51439575 -2.22924805 46.51275635 C-4.05078125 46.25878906 -4.05078125 46.25878906 -6.05078125 44.25878906 C-6.30474854 42.43725586 -6.30474854 42.43725586 -6.30957031 40.20800781 C-6.31587463 39.37374268 -6.32217896 38.53947754 -6.32867432 37.67993164 C-6.32462585 36.77782959 -6.32057739 35.87572754 -6.31640625 34.94628906 C-6.3183197 34.02162842 -6.32023315 33.09696777 -6.32220459 32.14428711 C-6.32356691 30.18733447 -6.31986721 28.23037282 -6.31152344 26.2734375 C-6.30082459 23.27095317 -6.31141716 20.2690672 -6.32421875 17.26660156 C-6.32289716 15.36816274 -6.32033479 13.46972428 -6.31640625 11.57128906 C-6.32045471 10.66918701 -6.32450317 9.76708496 -6.32867432 8.83764648 C-6.32237 8.00338135 -6.31606567 7.16911621 -6.30957031 6.30957031 C-6.30797913 5.57391846 -6.30638794 4.8382666 -6.30474854 4.08032227 C-5.76069598 0.17820631 -3.36827159 0.00728544 0 0 Z " fill="#369731" transform="translate(62.05078125,1.7412109375)"/>
<path d="M0 0 C1.28154213 -0.00956978 1.28154213 -0.00956978 2.588974 -0.01933289 C3.51811111 -0.02044571 4.44724823 -0.02155853 5.40454102 -0.02270508 C6.35281265 -0.02603348 7.30108429 -0.02936188 8.27809143 -0.03279114 C10.28809116 -0.03786452 12.29809934 -0.04019934 14.30810547 -0.04003906 C17.39182346 -0.04222455 20.47518333 -0.06037316 23.55883789 -0.0793457 C25.50740437 -0.08227967 27.45597256 -0.08426444 29.40454102 -0.08520508 C30.79521034 -0.09598335 30.79521034 -0.09598335 32.213974 -0.10697937 C33.07148758 -0.10390274 33.92900116 -0.10082611 34.8125 -0.09765625 C35.56893295 -0.09908127 36.32536591 -0.10050629 37.10472107 -0.10197449 C38.97094727 0.14526367 38.97094727 0.14526367 40.97094727 2.14526367 C41.18339921 5.19531814 41.27489956 8.15220995 41.27172852 11.20385742 C41.27601364 12.10395035 41.28029877 13.00404327 41.28471375 13.93141174 C41.29046256 15.83707843 41.29095326 17.74276707 41.28662109 19.6484375 C41.28346358 22.56768177 41.3069046 25.48591061 41.33227539 28.4050293 C41.33454853 30.25463739 41.33525181 32.10424822 41.33422852 33.95385742 C41.34343826 34.82892441 41.35264801 35.70399139 41.36213684 36.60557556 C41.35590805 37.41974442 41.34967926 38.23391327 41.34326172 39.07275391 C41.34389114 39.78842026 41.34452057 40.50408661 41.34516907 41.24143982 C40.85000781 43.76053358 40.02514516 44.6339917 37.97094727 46.14526367 C34.9219174 46.43157959 32.0815263 46.54156867 29.03344727 46.50854492 C27.71872437 46.50929268 27.71872437 46.50929268 26.37744141 46.51005554 C24.5247979 46.50771562 22.67215117 46.49799186 20.81958008 46.48144531 C17.9817262 46.45785328 15.14481178 46.46088483 12.30688477 46.4675293 C10.50739999 46.46195246 8.70791918 46.45484255 6.90844727 46.44604492 C6.05839111 46.44695633 5.20833496 46.44786774 4.33251953 46.44880676 C-1.68247535 46.37631526 -1.68247535 46.37631526 -5.02905273 44.14526367 C-5.39654541 42.27903748 -5.39654541 42.27903748 -5.38549805 39.98681641 C-5.38849915 39.12930283 -5.39150024 38.27178925 -5.39459229 37.38829041 C-5.38224548 36.46117752 -5.36989868 35.53406464 -5.35717773 34.57885742 C-5.35530457 33.62962906 -5.3534314 32.6804007 -5.35150146 31.70240784 C-5.34477262 29.69414767 -5.33084171 27.68590079 -5.31030273 25.67773438 C-5.27914517 22.59191816 -5.2693334 19.5066122 -5.26342773 16.4206543 C-5.25425831 14.4733824 -5.24388273 12.52611573 -5.23217773 10.57885742 C-5.22792786 9.64972031 -5.22367798 8.72058319 -5.21929932 7.76329041 C-5.20969177 6.90892899 -5.20008423 6.05456757 -5.19018555 5.17431641 C-5.18335754 4.41867905 -5.17652954 3.66304169 -5.16949463 2.88450623 C-4.89418287 -0.52497449 -2.94970762 0.01487974 0 0 Z " fill="#379632" transform="translate(7.029052734375,164.854736328125)"/>
<path d="M0 0 C0.81416885 -0.00622879 1.62833771 -0.01245758 2.46717834 -0.01887512 C3.77977882 -0.0050605 3.77977882 -0.0050605 5.11889648 0.0090332 C6.47047096 0.00828545 6.47047096 0.00828545 7.84934998 0.00752258 C9.75326748 0.00986247 11.65718812 0.019586 13.56103516 0.03613281 C16.48229479 0.05975223 19.40264361 0.05668989 22.32397461 0.05004883 C24.17228736 0.05562463 26.02059626 0.06273389 27.86889648 0.0715332 C28.7459877 0.0706218 29.62307892 0.06971039 30.52674866 0.06877136 C36.69646079 0.14128501 36.69646079 0.14128501 38.92749023 2.37231445 C39.17472839 4.23854065 39.17472839 4.23854065 39.17041016 6.53076172 C39.1750251 7.81703209 39.1750251 7.81703209 39.17973328 9.12928772 C39.17254776 10.0564006 39.16536224 10.98351349 39.15795898 11.9387207 C39.15750076 12.88794907 39.15704254 13.83717743 39.15657043 14.81517029 C39.15354662 16.82340748 39.14565648 18.83164229 39.13330078 20.83984375 C39.11504463 23.92562094 39.11279105 27.01109828 39.11303711 30.09692383 C39.10812207 32.04419207 39.10229381 33.99145826 39.09545898 35.9387207 C39.09434616 36.86785782 39.09323334 37.79699493 39.09208679 38.75428772 C39.08570694 39.60864914 39.07932709 40.46301056 39.07275391 41.34326172 C39.06703621 42.47671776 39.06703621 42.47671776 39.061203 43.6330719 C38.92749023 45.37231445 38.92749023 45.37231445 37.92749023 46.37231445 C36.58755407 46.47532859 35.24231059 46.51079898 33.8984375 46.51757812 C33.04407608 46.52395798 32.18971466 46.53033783 31.3094635 46.53691101 C30.38032639 46.53802383 29.45118927 46.53913666 28.49389648 46.5402832 C27.54562485 46.5436116 26.59735321 46.54694 25.62034607 46.55036926 C23.61034634 46.55544265 21.60033816 46.55777746 19.59033203 46.55761719 C16.50661404 46.55980267 13.42325417 46.57795128 10.33959961 46.59692383 C8.39103313 46.5998578 6.44246494 46.60184257 4.49389648 46.6027832 C3.5667836 46.60996872 2.63967072 46.61715424 1.6844635 46.6245575 C0.82694992 46.62148087 -0.03056366 46.61840424 -0.9140625 46.61523438 C-1.67049545 46.61665939 -2.42692841 46.61808441 -3.20628357 46.61955261 C-5.07250977 46.37231445 -5.07250977 46.37231445 -7.07250977 44.37231445 C-7.28496171 41.32225999 -7.37646206 38.36536818 -7.37329102 35.3137207 C-7.37757614 34.41362778 -7.38186127 33.51353485 -7.38627625 32.58616638 C-7.39202506 30.68049969 -7.39251576 28.77481106 -7.38818359 26.86914062 C-7.38502608 23.94989635 -7.4084671 21.03166751 -7.43383789 18.11254883 C-7.43611103 16.26294074 -7.43681431 14.41332991 -7.43579102 12.5637207 C-7.44500076 11.68865372 -7.45421051 10.81358673 -7.46369934 9.91200256 C-7.45747055 9.09783371 -7.45124176 8.28366486 -7.44482422 7.44482422 C-7.44545364 6.72915787 -7.44608307 6.01349152 -7.44673157 5.27613831 C-6.61845684 1.06235605 -3.99303737 -0.00351186 0 0 Z " fill="#369731" transform="translate(117.072509765625,109.627685546875)"/>
<path d="M0 0 C1.13917374 0.00666183 1.13917374 0.00666183 2.30136108 0.01345825 C3.59247299 0.01368484 3.59247299 0.01368484 4.90966797 0.01391602 C5.83991791 0.02423859 6.77016785 0.03456116 7.72860718 0.04519653 C8.68020721 0.04802643 9.63180725 0.05085632 10.61224365 0.05377197 C13.6589706 0.06498914 16.70540621 0.09009641 19.75204468 0.11550903 C21.81454044 0.12553685 23.8770408 0.13466304 25.93954468 0.14285278 C31.00215735 0.16493349 36.06455158 0.19947374 41.12704468 0.24050903 C42.25971941 2.50585851 42.26483003 3.77582486 42.28817749 6.29129028 C42.29778503 7.12555542 42.30739258 7.95982056 42.31729126 8.81936646 C42.32154114 9.72146851 42.32579102 10.62357056 42.33016968 11.55300903 C42.33586975 12.47766968 42.34156982 13.40233032 42.34744263 14.35501099 C42.35689624 16.31194919 42.36342804 18.26890334 42.36727905 20.2258606 C42.37700551 23.22841876 42.40803378 26.23029852 42.43954468 29.23269653 C42.44607249 31.13112995 42.45132383 33.02956828 42.45516968 34.92800903 C42.46751648 35.83011108 42.47986328 36.73221313 42.49258423 37.66165161 C42.48958313 38.49591675 42.48658203 39.33018188 42.48348999 40.18972778 C42.48895844 41.29320557 42.48895844 41.29320557 42.49453735 42.41897583 C42.12704468 44.24050903 42.12704468 44.24050903 39.12704468 46.24050903 C36.11655167 46.44905612 33.20082924 46.5445189 30.18954468 46.54129028 C29.31306274 46.54557541 28.43658081 46.54986053 27.53353882 46.55427551 C25.68092716 46.56001699 23.82829296 46.56052041 21.97567749 46.55618286 C19.13772266 46.55302093 16.30080824 46.57649064 13.46298218 46.60183716 C11.66350433 46.60410993 9.86402367 46.60481375 8.06454468 46.60379028 C7.21448853 46.61300003 6.36443237 46.62220978 5.48861694 46.63169861 C-0.40431198 46.58528962 -0.40431198 46.58528962 -2.5974884 44.97177124 C-4.15357733 42.85960516 -4.24755985 41.77185194 -4.24526978 39.16799927 C-4.25149857 38.35383041 -4.25772736 37.53966156 -4.2641449 36.70082092 C-4.25493515 35.82575394 -4.2457254 34.95068695 -4.23623657 34.04910278 C-4.23673508 33.14805313 -4.23723358 32.24700348 -4.23774719 31.31864929 C-4.2354073 29.41473178 -4.22568377 27.51081115 -4.20913696 25.60696411 C-4.18551754 22.68570448 -4.18857988 19.76535566 -4.19522095 16.84402466 C-4.18964515 14.9957119 -4.18253588 13.147403 -4.17373657 11.29910278 C-4.17464798 10.42201157 -4.17555939 9.54492035 -4.17649841 8.64125061 C-4.08109573 0.52405969 -4.08109573 0.52405969 0 0 Z " fill="#369731" transform="translate(59.872955322265625,164.75949096679688)"/>
<path d="M0 0 C0.87648193 -0.00428513 1.75296387 -0.00857025 2.65600586 -0.01298523 C4.50861751 -0.01872671 6.36125171 -0.01923013 8.21386719 -0.01489258 C11.05182202 -0.01173065 13.88873644 -0.03520035 16.7265625 -0.06054688 C18.52604035 -0.06281965 20.32552101 -0.06352347 22.125 -0.0625 C22.97505615 -0.07170975 23.8251123 -0.08091949 24.70092773 -0.09040833 C30.59385666 -0.04399933 30.59385666 -0.04399933 32.78703308 1.56951904 C34.34312201 3.68168512 34.43710453 4.76943835 34.43481445 7.37329102 C34.44415764 8.5945443 34.44415764 8.5945443 34.45368958 9.84046936 C34.44447983 10.71553635 34.43527008 11.59060333 34.42578125 12.4921875 C34.42652901 13.84376198 34.42652901 13.84376198 34.42729187 15.22264099 C34.42495198 17.1265585 34.41522845 19.03047913 34.39868164 20.93432617 C34.37506222 23.8555858 34.37812456 26.77593462 34.38476562 29.69726562 C34.37918982 31.54557838 34.37208056 33.39388728 34.36328125 35.2421875 C34.36464836 36.55782433 34.36464836 36.55782433 34.36604309 37.90003967 C34.29352945 44.0697518 34.29352945 44.0697518 32.0625 46.30078125 C30.18954468 46.54129028 30.18954468 46.54129028 27.88818359 46.52783203 C26.59707169 46.52760544 26.59707169 46.52760544 25.27987671 46.52737427 C24.34962677 46.5170517 23.41937683 46.50672913 22.4609375 46.49609375 C21.50933746 46.49326385 20.55773743 46.49043396 19.57730103 46.48751831 C16.53057408 46.47630114 13.48413846 46.45119388 10.4375 46.42578125 C8.37500424 46.41575343 6.31250388 46.40662724 4.25 46.3984375 C-0.81261267 46.37635679 -5.8750069 46.34181655 -10.9375 46.30078125 C-12.07017474 44.03543178 -12.07528535 42.76546542 -12.09863281 40.25 C-12.10824036 39.41573486 -12.1178479 38.58146973 -12.12774658 37.72192383 C-12.13199646 36.81982178 -12.13624634 35.91771973 -12.140625 34.98828125 C-12.14632507 34.06362061 -12.15202515 33.13895996 -12.15789795 32.1862793 C-12.16735156 30.22934109 -12.17388336 28.27238694 -12.17773438 26.31542969 C-12.18746083 23.31287153 -12.2184891 20.31099176 -12.25 17.30859375 C-12.25652782 15.41016033 -12.26177916 13.511722 -12.265625 11.61328125 C-12.2779718 10.7111792 -12.2903186 9.80907715 -12.30303955 8.87963867 C-12.30003845 8.04537354 -12.29703735 7.2111084 -12.29394531 6.3515625 C-12.29759094 5.61591064 -12.30123657 4.88025879 -12.30499268 4.12231445 C-11.2074849 -1.31764935 -4.27736858 -0.00458608 0 0 Z " fill="#369731" transform="translate(13.9375,109.69921875)"/>
<path d="M0 0 C1.10347778 0.00546844 1.10347778 0.00546844 2.22924805 0.01104736 C3.06351318 0.00804626 3.89777832 0.00504517 4.75732422 0.00195312 C5.65942627 0.01429993 6.56152832 0.02664673 7.4909668 0.03936768 C8.41562744 0.04124084 9.34028809 0.04311401 10.29296875 0.04504395 C12.24995524 0.0517731 14.20692808 0.06570463 16.16381836 0.08624268 C19.16622354 0.11736576 22.16810389 0.12720908 25.1706543 0.13311768 C27.06909822 0.14228871 28.96753679 0.1526648 30.8659668 0.16436768 C31.76806885 0.16861755 32.6701709 0.17286743 33.59960938 0.17724609 C34.85100708 0.19165741 34.85100708 0.19165741 36.12768555 0.20635986 C36.8633374 0.21318787 37.59898926 0.22001587 38.35693359 0.22705078 C40.1784668 0.36749268 40.1784668 0.36749268 42.1784668 1.36749268 C42.22780833 7.45472014 42.26415846 13.54183187 42.28833008 19.62921143 C42.29840391 21.70117215 42.31206346 23.7731186 42.3293457 25.84503174 C42.35353344 28.81870032 42.36493588 31.79218138 42.3737793 34.76593018 C42.38410187 35.69618011 42.39442444 36.62643005 42.40505981 37.58486938 C42.40528641 38.87598129 42.40528641 38.87598129 42.40551758 40.19317627 C42.4099588 40.95262543 42.41440002 41.71207458 42.41897583 42.49453735 C42.1784668 44.36749268 42.1784668 44.36749268 40.1784668 46.36749268 C37.12841233 46.57994462 34.17152052 46.67144497 31.11987305 46.66827393 C30.21978012 46.67255905 29.31968719 46.67684418 28.39231873 46.68125916 C26.48665204 46.68700798 24.5809634 46.68749867 22.67529297 46.6831665 C19.7560487 46.68000899 16.83781986 46.70345001 13.91870117 46.7288208 C12.06909308 46.73109394 10.21948225 46.73179722 8.36987305 46.73077393 C7.49480606 46.73998367 6.61973907 46.74919342 5.71815491 46.75868225 C4.90398605 46.75245346 4.0898172 46.74622467 3.25097656 46.73980713 C2.53531021 46.74043655 1.81964386 46.74106598 1.08229065 46.74171448 C-1.43680311 46.24655322 -2.31026124 45.42169057 -3.8215332 43.36749268 C-4.10784912 40.31846282 -4.2178382 37.47807171 -4.18481445 34.42999268 C-4.18531296 33.55351074 -4.18581146 32.67702881 -4.18632507 31.77398682 C-4.18398515 29.92134331 -4.17426139 28.06869658 -4.15771484 26.21612549 C-4.13412281 23.37827161 -4.13715436 20.54135719 -4.14379883 17.70343018 C-4.138222 15.9039454 -4.13111208 14.10446459 -4.12231445 12.30499268 C-4.12322586 11.45493652 -4.12413727 10.60488037 -4.12507629 9.72906494 C-4.0175921 0.81054557 -4.0175921 0.81054557 0 0 Z " fill="#369731" transform="translate(113.821533203125,1.63250732421875)"/>
<path d="M0 0 C0.87648193 -0.0004985 1.75296387 -0.00099701 2.65600586 -0.00151062 C4.50864937 0.00082931 6.36129609 0.01055306 8.21386719 0.02709961 C11.05172107 0.05069164 13.88863548 0.0476601 16.7265625 0.04101562 C18.52604728 0.04659246 20.32552809 0.05370237 22.125 0.0625 C22.97505615 0.06158859 23.8251123 0.06067719 24.70092773 0.05973816 C30.71592262 0.13222966 30.71592262 0.13222966 34.0625 2.36328125 C34.4367218 4.18481445 34.4367218 4.18481445 34.43481445 6.4140625 C34.44415764 7.66546021 34.44415764 7.66546021 34.45368958 8.94213867 C34.44447983 9.84424072 34.43527008 10.74634277 34.42578125 11.67578125 C34.42652901 13.06277222 34.42652901 13.06277222 34.42729187 14.4777832 C34.42494907 16.43475491 34.41520846 18.39172949 34.39868164 20.34863281 C34.37509503 23.35118435 34.3781183 26.35284819 34.38476562 29.35546875 C34.37918892 31.25391157 34.37207909 33.15235063 34.36328125 35.05078125 C34.36464836 36.40393433 34.36464836 36.40393433 34.36604309 37.78442383 C34.35651108 38.61868896 34.34697906 39.4529541 34.3371582 40.3125 C34.33255081 41.04815186 34.32794342 41.78380371 34.32319641 42.54174805 C34.0625 44.36328125 34.0625 44.36328125 32.0625 46.36328125 C30.2409668 46.61724854 30.2409668 46.61724854 28.01171875 46.62207031 C27.17745361 46.62837463 26.34318848 46.63467896 25.48364258 46.64117432 C24.58154053 46.63712585 23.67943848 46.63307739 22.75 46.62890625 C21.36300903 46.63177643 21.36300903 46.63177643 19.94799805 46.63470459 C17.99104541 46.63606691 16.03408376 46.63236721 14.07714844 46.62402344 C11.0746641 46.61332459 8.07277813 46.62391716 5.0703125 46.63671875 C3.17187367 46.63539716 1.27343522 46.63283479 -0.625 46.62890625 C-1.52710205 46.63295471 -2.4292041 46.63700317 -3.35864258 46.64117432 C-4.61004028 46.63171783 -4.61004028 46.63171783 -5.88671875 46.62207031 C-6.62237061 46.62047913 -7.35802246 46.61888794 -8.1159668 46.61724854 C-9.9375 46.36328125 -9.9375 46.36328125 -11.9375 44.36328125 C-12.14995194 41.31322678 -12.24145229 38.35633498 -12.23828125 35.3046875 C-12.24256638 34.40459457 -12.2468515 33.50450165 -12.25126648 32.57713318 C-12.2570153 30.67146649 -12.25750599 28.76577786 -12.25317383 26.86010742 C-12.25001631 23.94086315 -12.27345734 21.02263431 -12.29882812 18.10351562 C-12.30110127 16.25390753 -12.30180454 14.40429671 -12.30078125 12.5546875 C-12.309991 11.67962051 -12.31920074 10.80455353 -12.32868958 9.90296936 C-12.32246078 9.08880051 -12.31623199 8.27463165 -12.30981445 7.43579102 C-12.31044388 6.72012466 -12.3110733 6.00445831 -12.3117218 5.2671051 C-11.0781621 -1.0085324 -5.15540215 -0.05585508 0 0 Z " fill="#369731" transform="translate(67.9375,109.63671875)"/>
<path d="M0 0 C6.20722843 3.67835759 10.1401979 9.19492693 12.375 16 C13.25173981 23.87026899 13.05814552 31.38115434 8.375 38 C3.06169883 43.8274916 -1.71836019 47.40846347 -9.703125 48.37109375 C-17.41691162 48.53258928 -23.34959704 47.72073713 -29.625 43 C-36.11963283 36.30283184 -38.02556867 29.99916006 -37.99291992 20.74267578 C-37.8058497 13.47796774 -35.80096746 8.70525684 -31.3125 3.125 C-22.69587469 -3.68814559 -9.94985096 -4.46912881 0 0 Z " fill="#C60D11" transform="translate(37.625,2)"/>
<path d="M0 0 C1.13917374 0.00666183 1.13917374 0.00666183 2.30136108 0.01345825 C3.59247299 0.01368484 3.59247299 0.01368484 4.90966797 0.01391602 C5.83991791 0.02423859 6.77016785 0.03456116 7.72860718 0.04519653 C8.68020721 0.04802643 9.63180725 0.05085632 10.61224365 0.05377197 C13.6589706 0.06498914 16.70540621 0.09009641 19.75204468 0.11550903 C21.81454044 0.12553685 23.8770408 0.13466304 25.93954468 0.14285278 C31.00215735 0.16493349 36.06455158 0.19947374 41.12704468 0.24050903 C42.25971941 2.50585851 42.26483003 3.77582486 42.28817749 6.29129028 C42.29778503 7.12555542 42.30739258 7.95982056 42.31729126 8.81936646 C42.32154114 9.72146851 42.32579102 10.62357056 42.33016968 11.55300903 C42.33586975 12.47766968 42.34156982 13.40233032 42.34744263 14.35501099 C42.35689624 16.31194919 42.36342804 18.26890334 42.36727905 20.2258606 C42.37700551 23.22841876 42.40803378 26.23029852 42.43954468 29.23269653 C42.44607249 31.13112995 42.45132383 33.02956828 42.45516968 34.92800903 C42.46751648 35.83011108 42.47986328 36.73221313 42.49258423 37.66165161 C42.48958313 38.49591675 42.48658203 39.33018188 42.48348999 40.18972778 C42.48895844 41.29320557 42.48895844 41.29320557 42.49453735 42.41897583 C42.12704468 44.24050903 42.12704468 44.24050903 39.12704468 46.24050903 C36.11655167 46.44905612 33.20082924 46.5445189 30.18954468 46.54129028 C29.31306274 46.54557541 28.43658081 46.54986053 27.53353882 46.55427551 C25.68092716 46.56001699 23.82829296 46.56052041 21.97567749 46.55618286 C19.13772266 46.55302093 16.30080824 46.57649064 13.46298218 46.60183716 C11.66350433 46.60410993 9.86402367 46.60481375 8.06454468 46.60379028 C7.21448853 46.61300003 6.36443237 46.62220978 5.48861694 46.63169861 C-0.40431198 46.58528962 -0.40431198 46.58528962 -2.5974884 44.97177124 C-4.15357733 42.85960516 -4.24755985 41.77185194 -4.24526978 39.16799927 C-4.25149857 38.35383041 -4.25772736 37.53966156 -4.2641449 36.70082092 C-4.25493515 35.82575394 -4.2457254 34.95068695 -4.23623657 34.04910278 C-4.23673508 33.14805313 -4.23723358 32.24700348 -4.23774719 31.31864929 C-4.2354073 29.41473178 -4.22568377 27.51081115 -4.20913696 25.60696411 C-4.18551754 22.68570448 -4.18857988 19.76535566 -4.19522095 16.84402466 C-4.18964515 14.9957119 -4.18253588 13.147403 -4.17373657 11.29910278 C-4.17464798 10.42201157 -4.17555939 9.54492035 -4.17649841 8.64125061 C-4.08109573 0.52405969 -4.08109573 0.52405969 0 0 Z M-1.33389282 2.23196411 C-3.78531097 5.43117368 -3.44303038 8.87422864 -3.40420532 12.74050903 C-3.40803223 13.57259888 -3.41185913 14.40468872 -3.415802 15.26199341 C-3.41852282 17.02046926 -3.41114963 18.77898547 -3.3944397 20.53738403 C-3.37303083 23.23100909 -3.3942338 25.92196706 -3.41983032 28.61550903 C-3.41718707 30.32384826 -3.41206215 32.03218583 -3.40420532 33.74050903 C-3.41230225 34.54681763 -3.42039917 35.35312622 -3.42874146 36.18386841 C-3.37502505 39.38282644 -3.32178345 41.64330557 -1.36343384 44.24905396 C2.23715388 45.68244154 5.69116183 45.64887489 9.50595093 45.60379028 C10.7186692 45.60453804 10.7186692 45.60453804 11.95588684 45.6053009 C13.66132064 45.60296473 15.36675816 45.59326314 17.07211304 45.57669067 C19.68383549 45.55306069 22.29453908 45.55613761 24.90634155 45.56277466 C26.56455077 45.55719881 28.22275568 45.55008952 29.88095093 45.54129028 C30.66224869 45.54220169 31.44354645 45.5431131 32.2485199 45.54405212 C36.06395315 45.49406967 37.87740878 45.40693297 41.12704468 43.24050903 C41.40641957 40.43776652 41.49898497 37.85896768 41.45516968 35.05691528 C41.45329651 34.24560654 41.45142334 33.43429779 41.44949341 32.59840393 C41.44276541 30.88100075 41.42883608 29.16361309 41.40829468 27.44631958 C41.37721037 24.81702432 41.36733135 22.18832899 41.36141968 19.55886841 C41.35224672 17.89154339 41.34187002 16.22422448 41.33016968 14.55691528 C41.3259198 13.76934341 41.32166992 12.98177155 41.31729126 12.17033386 C41.27505582 8.94324048 41.15452674 6.32295522 40.12704468 3.24050903 C36.56953641 0.58954514 32.46862703 0.93444165 28.22079468 0.93972778 C27.45907959 0.93544266 26.6973645 0.93115753 25.91256714 0.92674255 C24.30552157 0.92101134 22.69845006 0.92049009 21.09140015 0.92483521 C18.63538369 0.92799829 16.18056884 0.90451181 13.72470093 0.87918091 C12.16090036 0.87690806 10.59709656 0.87620435 9.03329468 0.87722778 C8.30090576 0.86801804 7.56851685 0.85880829 6.81393433 0.84931946 C3.8586661 0.87609384 1.41685674 1.12375042 -1.33389282 2.23196411 Z " fill="#488644" transform="translate(59.872955322265625,164.75949096679688)"/>
<path d="M0 0 C0.83426514 -0.00630432 1.66853027 -0.01260864 2.52807617 -0.019104 C3.43017822 -0.01505554 4.33228027 -0.01100708 5.26171875 -0.00683594 C6.64870972 -0.00970612 6.64870972 -0.00970612 8.0637207 -0.01263428 C10.02067334 -0.0139966 11.97763499 -0.0102969 13.93457031 -0.00195312 C16.93705465 0.00874572 19.93894062 -0.00184685 22.94140625 -0.01464844 C24.83984508 -0.01332685 26.73828353 -0.01076448 28.63671875 -0.00683594 C29.5388208 -0.0108844 30.44092285 -0.01493286 31.37036133 -0.019104 C32.62175903 -0.00964752 32.62175903 -0.00964752 33.8984375 0 C34.63408936 0.00159119 35.36974121 0.00318237 36.12768555 0.00482178 C37.94921875 0.25878906 37.94921875 0.25878906 39.94921875 2.25878906 C40.20318604 4.08032227 40.20318604 4.08032227 40.20800781 6.30957031 C40.21431213 7.14383545 40.22061646 7.97810059 40.22711182 8.83764648 C40.22306335 9.73974854 40.21901489 10.64185059 40.21484375 11.57128906 C40.21771393 12.95828003 40.21771393 12.95828003 40.22064209 14.37329102 C40.22200441 16.33024365 40.21830471 18.2872053 40.20996094 20.24414062 C40.19926209 23.24662496 40.20985466 26.24851093 40.22265625 29.25097656 C40.22133466 31.14941539 40.21877229 33.04785384 40.21484375 34.94628906 C40.21889221 35.84839111 40.22294067 36.75049316 40.22711182 37.67993164 C40.2208075 38.51419678 40.21450317 39.34846191 40.20800781 40.20800781 C40.20641663 40.94365967 40.20482544 41.67931152 40.20318604 42.43725586 C39.94921875 44.25878906 39.94921875 44.25878906 37.94921875 46.25878906 C36.12768555 46.51275635 36.12768555 46.51275635 33.8984375 46.51757812 C33.06417236 46.52388245 32.22990723 46.53018677 31.37036133 46.53668213 C30.46825928 46.53263367 29.56615723 46.52858521 28.63671875 46.52441406 C27.24972778 46.52728424 27.24972778 46.52728424 25.8347168 46.5302124 C23.87776416 46.53157472 21.92080251 46.52787502 19.96386719 46.51953125 C16.96138285 46.50883241 13.95949688 46.51942497 10.95703125 46.53222656 C9.05859242 46.53090498 7.16015397 46.5283426 5.26171875 46.52441406 C4.3596167 46.52846252 3.45751465 46.53251099 2.52807617 46.53668213 C1.27667847 46.52722565 1.27667847 46.52722565 0 46.51757812 C-0.73565186 46.51598694 -1.47130371 46.51439575 -2.22924805 46.51275635 C-4.05078125 46.25878906 -4.05078125 46.25878906 -6.05078125 44.25878906 C-6.30474854 42.43725586 -6.30474854 42.43725586 -6.30957031 40.20800781 C-6.31587463 39.37374268 -6.32217896 38.53947754 -6.32867432 37.67993164 C-6.32462585 36.77782959 -6.32057739 35.87572754 -6.31640625 34.94628906 C-6.3183197 34.02162842 -6.32023315 33.09696777 -6.32220459 32.14428711 C-6.32356691 30.18733447 -6.31986721 28.23037282 -6.31152344 26.2734375 C-6.30082459 23.27095317 -6.31141716 20.2690672 -6.32421875 17.26660156 C-6.32289716 15.36816274 -6.32033479 13.46972428 -6.31640625 11.57128906 C-6.32045471 10.66918701 -6.32450317 9.76708496 -6.32867432 8.83764648 C-6.32237 8.00338135 -6.31606567 7.16911621 -6.30957031 6.30957031 C-6.30797913 5.57391846 -6.30638794 4.8382666 -6.30474854 4.08032227 C-5.76069598 0.17820631 -3.36827159 0.00728544 0 0 Z M-5.05078125 3.25878906 C-5.25084427 6.2484101 -5.33051048 9.14341256 -5.31640625 12.13378906 C-5.3183197 13.01405762 -5.32023315 13.89432617 -5.32220459 14.80126953 C-5.32356677 16.6640654 -5.31986807 18.52687076 -5.31152344 20.38964844 C-5.30082432 23.24728642 -5.31141757 26.10429572 -5.32421875 28.96191406 C-5.32289716 30.76920712 -5.32033478 32.57649979 -5.31640625 34.38378906 C-5.32045471 35.24214355 -5.32450317 36.10049805 -5.32867432 36.98486328 C-5.505715 41.60103965 -5.505715 41.60103965 -3.05078125 45.25878906 C-0.03769174 45.43425389 2.88232329 45.49006351 5.89453125 45.45410156 C6.77954315 45.45127167 7.66455505 45.44844177 8.5763855 45.44552612 C11.40913287 45.43431147 14.24156659 45.40920477 17.07421875 45.38378906 C18.99218294 45.37376091 20.91015208 45.36463478 22.828125 45.35644531 C27.53527751 45.33436795 32.24219491 45.29982951 36.94921875 45.25878906 C39.0590517 40.94915273 39.27074081 36.96511023 39.28515625 32.25488281 C39.29181305 31.49458267 39.29846985 30.73428253 39.30532837 29.95094299 C39.31541812 28.34988819 39.32014653 26.74879164 39.31982422 25.14770508 C39.32421154 22.70030855 39.36060493 20.25469675 39.3984375 17.80761719 C39.4043037 16.24837854 39.40827441 14.68913136 39.41015625 13.12988281 C39.42452728 12.40063095 39.43889832 11.67137909 39.45370483 10.92002869 C39.42481447 7.70721642 39.13358395 5.56371702 37.45996094 2.7956543 C33.84077007 0.58028999 30.43067375 0.72433742 26.31640625 0.79785156 C25.48335968 0.79876801 24.65031311 0.79968445 23.79202271 0.80062866 C22.03528121 0.80665977 20.27854977 0.82239119 18.52197266 0.84716797 C15.82676535 0.88375449 13.13293008 0.88818673 10.4375 0.88769531 C8.73045682 0.89752374 7.02342297 0.90917954 5.31640625 0.92285156 C4.10390701 0.92619003 4.10390701 0.92619003 2.86691284 0.92959595 C-1.56220359 0.83125355 -1.56220359 0.83125355 -5.05078125 3.25878906 Z " fill="#488B45" transform="translate(62.05078125,55.7412109375)"/>
<path d="M0 0 C0.83426514 -0.00630432 1.66853027 -0.01260864 2.52807617 -0.019104 C3.43017822 -0.01505554 4.33228027 -0.01100708 5.26171875 -0.00683594 C6.64870972 -0.00970612 6.64870972 -0.00970612 8.0637207 -0.01263428 C10.02067334 -0.0139966 11.97763499 -0.0102969 13.93457031 -0.00195312 C16.93705465 0.00874572 19.93894062 -0.00184685 22.94140625 -0.01464844 C24.83984508 -0.01332685 26.73828353 -0.01076448 28.63671875 -0.00683594 C29.5388208 -0.0108844 30.44092285 -0.01493286 31.37036133 -0.019104 C32.62175903 -0.00964752 32.62175903 -0.00964752 33.8984375 0 C34.63408936 0.00159119 35.36974121 0.00318237 36.12768555 0.00482178 C37.94921875 0.25878906 37.94921875 0.25878906 39.94921875 2.25878906 C40.20318604 4.08032227 40.20318604 4.08032227 40.20800781 6.30957031 C40.21431213 7.14383545 40.22061646 7.97810059 40.22711182 8.83764648 C40.22306335 9.73974854 40.21901489 10.64185059 40.21484375 11.57128906 C40.21771393 12.95828003 40.21771393 12.95828003 40.22064209 14.37329102 C40.22200441 16.33024365 40.21830471 18.2872053 40.20996094 20.24414062 C40.19926209 23.24662496 40.20985466 26.24851093 40.22265625 29.25097656 C40.22133466 31.14941539 40.21877229 33.04785384 40.21484375 34.94628906 C40.21889221 35.84839111 40.22294067 36.75049316 40.22711182 37.67993164 C40.2208075 38.51419678 40.21450317 39.34846191 40.20800781 40.20800781 C40.20641663 40.94365967 40.20482544 41.67931152 40.20318604 42.43725586 C39.94921875 44.25878906 39.94921875 44.25878906 37.94921875 46.25878906 C36.12768555 46.51275635 36.12768555 46.51275635 33.8984375 46.51757812 C33.06417236 46.52388245 32.22990723 46.53018677 31.37036133 46.53668213 C30.46825928 46.53263367 29.56615723 46.52858521 28.63671875 46.52441406 C27.24972778 46.52728424 27.24972778 46.52728424 25.8347168 46.5302124 C23.87776416 46.53157472 21.92080251 46.52787502 19.96386719 46.51953125 C16.96138285 46.50883241 13.95949688 46.51942497 10.95703125 46.53222656 C9.05859242 46.53090498 7.16015397 46.5283426 5.26171875 46.52441406 C4.3596167 46.52846252 3.45751465 46.53251099 2.52807617 46.53668213 C1.27667847 46.52722565 1.27667847 46.52722565 0 46.51757812 C-0.73565186 46.51598694 -1.47130371 46.51439575 -2.22924805 46.51275635 C-4.05078125 46.25878906 -4.05078125 46.25878906 -6.05078125 44.25878906 C-6.30474854 42.43725586 -6.30474854 42.43725586 -6.30957031 40.20800781 C-6.31587463 39.37374268 -6.32217896 38.53947754 -6.32867432 37.67993164 C-6.32462585 36.77782959 -6.32057739 35.87572754 -6.31640625 34.94628906 C-6.3183197 34.02162842 -6.32023315 33.09696777 -6.32220459 32.14428711 C-6.32356691 30.18733447 -6.31986721 28.23037282 -6.31152344 26.2734375 C-6.30082459 23.27095317 -6.31141716 20.2690672 -6.32421875 17.26660156 C-6.32289716 15.36816274 -6.32033479 13.46972428 -6.31640625 11.57128906 C-6.32045471 10.66918701 -6.32450317 9.76708496 -6.32867432 8.83764648 C-6.32237 8.00338135 -6.31606567 7.16911621 -6.30957031 6.30957031 C-6.30797913 5.57391846 -6.30638794 4.8382666 -6.30474854 4.08032227 C-5.76069598 0.17820631 -3.36827159 0.00728544 0 0 Z M-5.05078125 3.25878906 C-5.05078125 16.78878906 -5.05078125 30.31878906 -5.05078125 44.25878906 C-1.66685117 45.9507541 2.17399666 45.37865455 5.89453125 45.35644531 C6.77954315 45.35503036 7.66455505 45.35361542 8.5763855 45.35215759 C11.40903066 45.34655047 14.24159739 45.33399678 17.07421875 45.32128906 C18.99218636 45.31627498 20.91015521 45.31171191 22.828125 45.30761719 C27.53518657 45.29657872 32.24218935 45.27930931 36.94921875 45.25878906 C38.87347282 40.41471353 39.24263195 36.01755191 39.21484375 30.86816406 C39.2167572 30.08233948 39.21867065 29.29651489 39.22064209 28.48687744 C39.22199647 26.83630043 39.2183525 25.18571249 39.20996094 23.53515625 C39.19919281 21.00268932 39.20991068 18.47092246 39.22265625 15.93847656 C39.22133565 14.33170416 39.21877531 12.7249322 39.21484375 11.11816406 C39.21889221 10.35985291 39.22294067 9.60154175 39.22711182 8.82025146 C39.33591988 4.57913535 39.33591988 4.57913535 36.94921875 1.25878906 C34.12697079 1.05879021 31.40501826 0.97902539 28.58203125 0.99316406 C27.75089813 0.99125061 26.91976501 0.98933716 26.06344604 0.98736572 C24.30319924 0.98600341 22.5429424 0.98970304 20.78271484 0.99804688 C18.09189141 1.00871897 15.40173972 0.99816725 12.7109375 0.98535156 C11.00130061 0.98667368 9.29166414 0.98923715 7.58203125 0.99316406 C6.77774689 0.9891156 5.97346252 0.98506714 5.14480591 0.980896 C0.95663474 1.01591256 -1.21464462 1.34072075 -5.05078125 3.25878906 Z " fill="#4A8B44" transform="translate(62.05078125,1.7412109375)"/>
<path d="M0 0 C1.10347778 0.00546844 1.10347778 0.00546844 2.22924805 0.01104736 C3.06351318 0.00804626 3.89777832 0.00504517 4.75732422 0.00195312 C5.65942627 0.01429993 6.56152832 0.02664673 7.4909668 0.03936768 C8.41562744 0.04124084 9.34028809 0.04311401 10.29296875 0.04504395 C12.24995524 0.0517731 14.20692808 0.06570463 16.16381836 0.08624268 C19.16622354 0.11736576 22.16810389 0.12720908 25.1706543 0.13311768 C27.06909822 0.14228871 28.96753679 0.1526648 30.8659668 0.16436768 C31.76806885 0.16861755 32.6701709 0.17286743 33.59960938 0.17724609 C34.85100708 0.19165741 34.85100708 0.19165741 36.12768555 0.20635986 C36.8633374 0.21318787 37.59898926 0.22001587 38.35693359 0.22705078 C40.1784668 0.36749268 40.1784668 0.36749268 42.1784668 1.36749268 C42.22780833 7.45472014 42.26415846 13.54183187 42.28833008 19.62921143 C42.29840391 21.70117215 42.31206346 23.7731186 42.3293457 25.84503174 C42.35353344 28.81870032 42.36493588 31.79218138 42.3737793 34.76593018 C42.38410187 35.69618011 42.39442444 36.62643005 42.40505981 37.58486938 C42.40528641 38.87598129 42.40528641 38.87598129 42.40551758 40.19317627 C42.4099588 40.95262543 42.41440002 41.71207458 42.41897583 42.49453735 C42.1784668 44.36749268 42.1784668 44.36749268 40.1784668 46.36749268 C37.12841233 46.57994462 34.17152052 46.67144497 31.11987305 46.66827393 C30.21978012 46.67255905 29.31968719 46.67684418 28.39231873 46.68125916 C26.48665204 46.68700798 24.5809634 46.68749867 22.67529297 46.6831665 C19.7560487 46.68000899 16.83781986 46.70345001 13.91870117 46.7288208 C12.06909308 46.73109394 10.21948225 46.73179722 8.36987305 46.73077393 C7.49480606 46.73998367 6.61973907 46.74919342 5.71815491 46.75868225 C4.90398605 46.75245346 4.0898172 46.74622467 3.25097656 46.73980713 C2.53531021 46.74043655 1.81964386 46.74106598 1.08229065 46.74171448 C-1.43680311 46.24655322 -2.31026124 45.42169057 -3.8215332 43.36749268 C-4.10784912 40.31846282 -4.2178382 37.47807171 -4.18481445 34.42999268 C-4.18531296 33.55351074 -4.18581146 32.67702881 -4.18632507 31.77398682 C-4.18398515 29.92134331 -4.17426139 28.06869658 -4.15771484 26.21612549 C-4.13412281 23.37827161 -4.13715436 20.54135719 -4.14379883 17.70343018 C-4.138222 15.9039454 -4.13111208 14.10446459 -4.12231445 12.30499268 C-4.12322586 11.45493652 -4.12413727 10.60488037 -4.12507629 9.72906494 C-4.0175921 0.81054557 -4.0175921 0.81054557 0 0 Z M-0.8215332 1.36749268 C-3.38966093 5.21968427 -3.10957805 8.4022615 -3.0871582 12.86749268 C-3.09002838 14.11562744 -3.09002838 14.11562744 -3.09295654 15.38897705 C-3.09431695 17.14744367 -3.09063059 18.90592038 -3.08227539 20.66436768 C-3.07157369 23.3573053 -3.08217541 26.04957582 -3.0949707 28.74249268 C-3.09364908 30.45082748 -3.09108664 32.15916187 -3.0871582 33.86749268 C-3.09120667 34.67380127 -3.09525513 35.48010986 -3.09942627 36.31085205 C-3.0669224 40.1822396 -3.01842369 42.07215694 -0.8215332 45.36749268 C2.20582732 45.65895257 5.02533436 45.76326439 8.0534668 45.73077393 C9.37386963 45.73152168 9.37386963 45.73152168 10.72094727 45.73228455 C12.58376317 45.72994199 14.44658212 45.7202028 16.30932617 45.70367432 C19.16703477 45.68008703 22.02381067 45.68311115 24.8815918 45.6897583 C26.68888905 45.68418158 28.49618236 45.67707174 30.3034668 45.66827393 C31.59099854 45.66964104 31.59099854 45.66964104 32.90454102 45.67103577 C37.52081808 45.82620387 37.52081808 45.82620387 41.1784668 43.36749268 C41.35386116 40.42652531 41.40979055 37.58095919 41.3737793 34.64093018 C41.36953445 33.34670639 41.36953445 33.34670639 41.36520386 32.02633667 C41.35399012 29.26491548 41.32888363 26.50381618 41.3034668 23.74249268 C41.29343853 21.87270569 41.28431241 20.00291362 41.27612305 18.13311768 C41.25404692 13.54445159 41.21950914 8.95602674 41.1784668 4.36749268 C40.1884668 4.03749268 39.1984668 3.70749268 38.1784668 3.36749268 C38.1784668 2.70749268 38.1784668 2.04749268 38.1784668 1.36749268 C32.66091875 1.29346475 27.14365824 1.23894902 21.62573242 1.20269775 C19.74775153 1.18758943 17.86980604 1.16710174 15.99194336 1.14117432 C13.29621661 1.10488021 10.60095534 1.08778722 7.9050293 1.07452393 C7.06227448 1.05904007 6.21951965 1.04355621 5.35122681 1.02760315 C2.74124405 0.99160131 2.74124405 0.99160131 -0.8215332 1.36749268 Z " fill="#4B8D46" transform="translate(113.821533203125,1.63250732421875)"/>
<path d="M0 0 C5.64166991 -0.04940499 11.28321413 -0.08572193 16.92504883 -0.10986328 C18.84466749 -0.11992639 20.76427081 -0.13357816 22.68383789 -0.15087891 C25.44160752 -0.17511364 28.19917464 -0.18647992 30.95703125 -0.1953125 C32.24623222 -0.21079636 32.24623222 -0.21079636 33.56147766 -0.22659302 C34.36208115 -0.22674408 35.16268463 -0.22689514 35.98754883 -0.22705078 C36.6914827 -0.231492 37.39541656 -0.23593323 38.12068176 -0.24050903 C40 0 40 0 43 2 C43.3742218 3.8215332 43.3742218 3.8215332 43.37231445 6.05078125 C43.38165764 7.30217896 43.38165764 7.30217896 43.39118958 8.57885742 C43.38197983 9.48095947 43.37277008 10.38306152 43.36328125 11.3125 C43.36402901 12.69949097 43.36402901 12.69949097 43.36479187 14.11450195 C43.36244907 16.07147366 43.35270846 18.02844824 43.33618164 19.98535156 C43.31259503 22.9879031 43.3156183 25.98956694 43.32226562 28.9921875 C43.31668892 30.89063032 43.30957909 32.78906938 43.30078125 34.6875 C43.30214836 36.04065308 43.30214836 36.04065308 43.30354309 37.42114258 C43.29401108 38.25540771 43.28447906 39.08967285 43.2746582 39.94921875 C43.27005081 40.68487061 43.26544342 41.42052246 43.26069641 42.1784668 C43 44 43 44 41 46 C39.1784668 46.25396729 39.1784668 46.25396729 36.94921875 46.25878906 C36.11495361 46.26509338 35.28068848 46.27139771 34.42114258 46.27789307 C33.51904053 46.2738446 32.61693848 46.26979614 31.6875 46.265625 C30.30050903 46.26849518 30.30050903 46.26849518 28.88549805 46.27142334 C26.92854541 46.27278566 24.97158376 46.26908596 23.01464844 46.26074219 C20.0121641 46.25004334 17.01027813 46.26063591 14.0078125 46.2734375 C12.10937367 46.27211591 10.21093522 46.26955354 8.3125 46.265625 C7.41039795 46.26967346 6.5082959 46.27372192 5.57885742 46.27789307 C4.32745972 46.26843658 4.32745972 46.26843658 3.05078125 46.25878906 C2.31512939 46.25719788 1.57947754 46.25560669 0.8215332 46.25396729 C-1 46 -1 46 -3 44 C-3.17539436 41.05903263 -3.23132375 38.21346651 -3.1953125 35.2734375 C-3.1924826 34.41062164 -3.18965271 33.54780579 -3.18673706 32.65884399 C-3.17552333 29.8974228 -3.15041684 27.1363235 -3.125 24.375 C-3.11497173 22.50521301 -3.10584562 20.63542095 -3.09765625 18.765625 C-3.07558012 14.17695891 -3.04104234 9.58853407 -3 5 C-2.67 5 -2.34 5 -2 5 C-1.67 17.21 -1.34 29.42 -1 42 C3.35227183 44.17613591 6.48276969 44.27499264 11.1953125 44.23046875 C11.98396698 44.23001053 12.77262146 44.22955231 13.58517456 44.2290802 C15.24771637 44.22606555 16.91025555 44.21820284 18.57275391 44.20581055 C21.12282258 44.18751562 23.67252868 44.18530125 26.22265625 44.18554688 C27.83854482 44.18063277 29.45443092 44.17480493 31.0703125 44.16796875 C32.2171904 44.16629951 32.2171904 44.16629951 33.38723755 44.16459656 C37.32253907 44.20757346 37.32253907 44.20757346 41 43 C41.33 29.8 41.66 16.6 42 3 C38.0723849 1.69079497 34.27429369 1.76537132 30.17578125 1.68359375 C29.31438034 1.66281265 28.45297943 1.64203156 27.56547546 1.62062073 C24.81456456 1.55525091 22.06355844 1.49629868 19.3125 1.4375 C17.44725579 1.39430283 15.5820212 1.35068815 13.71679688 1.30664062 C9.14462876 1.19958237 4.5723649 1.09827946 0 1 C0 0.67 0 0.34 0 0 Z " fill="#458941" transform="translate(59,110)"/>
<path d="M0 0 C1.23093636 0.00033989 1.23093636 0.00033989 2.48674011 0.00068665 C3.36808121 0.0161705 4.2494223 0.03165436 5.1574707 0.04760742 C6.5161602 0.05397469 6.5161602 0.05397469 7.90229797 0.06047058 C10.79625128 0.07726769 13.68950902 0.11492167 16.58325195 0.15307617 C18.54483044 0.16812168 20.50641984 0.18181032 22.46801758 0.1940918 C27.27753051 0.2271746 32.08652329 0.27896395 36.89575195 0.34057617 C37.39075195 1.33057617 37.39075195 1.33057617 37.89575195 2.34057617 C36.73003662 2.33533936 35.56432129 2.33010254 34.36328125 2.32470703 C30.04151171 2.30661746 25.71974551 2.29512964 21.39794922 2.28564453 C19.52684975 2.28061339 17.65575421 2.27378782 15.78466797 2.26513672 C13.09642567 2.25301789 10.40823532 2.2473357 7.7199707 2.24291992 C6.88237717 2.23775864 6.04478363 2.23259735 5.18180847 2.22727966 C1.83199454 2.22695553 -0.90371261 2.27373103 -4.10424805 3.34057617 C-5.34560775 7.06465528 -5.24735492 10.52501763 -5.23706055 14.40307617 C-5.23801727 15.19077393 -5.238974 15.97847168 -5.23995972 16.79003906 C-5.24063978 18.45434652 -5.23879757 20.11865664 -5.23461914 21.78295898 C-5.22926843 24.33087113 -5.23456997 26.87860701 -5.2409668 29.42651367 C-5.24030598 31.04370156 -5.23902476 32.66088934 -5.23706055 34.27807617 C-5.23908478 35.04063721 -5.24110901 35.80319824 -5.24319458 36.58886719 C-5.22907899 39.77204533 -5.11834032 42.29829934 -4.10424805 45.34057617 C9.09575195 45.01057617 22.29575195 44.68057617 35.89575195 44.34057617 C36.55575195 42.36057617 37.21575195 40.38057617 37.89575195 38.34057617 C38.22575195 38.34057617 38.55575195 38.34057617 38.89575195 38.34057617 C38.93816919 40.67352393 38.93668133 43.00760184 38.89575195 45.34057617 C37.36843085 46.86789727 35.99571172 46.47510008 33.86669922 46.48583984 C33.0123378 46.4922197 32.15797638 46.49859955 31.27772522 46.50517273 C30.3485881 46.50628555 29.41945099 46.50739838 28.4621582 46.50854492 C27.51388657 46.51187332 26.56561493 46.51520172 25.58860779 46.51863098 C23.57860806 46.52370436 21.56859987 46.52603918 19.55859375 46.52587891 C16.47487576 46.52806439 13.39151589 46.546213 10.30786133 46.56518555 C8.35929485 46.56811952 6.41072666 46.57010429 4.4621582 46.57104492 C3.53504532 46.57823044 2.60793243 46.58541595 1.65272522 46.59281921 C0.79521164 46.58974258 -0.06230194 46.58666595 -0.94580078 46.58349609 C-1.70223373 46.58492111 -2.45866669 46.58634613 -3.23802185 46.58781433 C-5.10424805 46.34057617 -5.10424805 46.34057617 -7.10424805 44.34057617 C-7.31669999 41.29052171 -7.40820034 38.3336299 -7.4050293 35.28198242 C-7.40931442 34.3818895 -7.41359955 33.48179657 -7.41801453 32.5544281 C-7.42376335 30.64876141 -7.42425404 28.74307278 -7.41992188 26.83740234 C-7.41676436 23.91815807 -7.44020538 20.99992923 -7.46557617 18.08081055 C-7.46784932 16.23120245 -7.46855259 14.38159163 -7.4675293 12.53198242 C-7.47673904 11.65691544 -7.48594879 10.78184845 -7.49543762 9.88026428 C-7.48920883 9.06609543 -7.48298004 8.25192657 -7.4765625 7.41308594 C-7.47719193 6.69741959 -7.47782135 5.98175323 -7.47846985 5.24440002 C-6.64521389 1.00527618 -4.01180818 -0.03703208 0 0 Z " fill="#498A44" transform="translate(117.104248046875,109.659423828125)"/>
<path d="M0 0 C0.33 0 0.66 0 1 0 C1.02505615 1.1960083 1.0501123 2.3920166 1.07592773 3.62426758 C1.17003852 8.05797195 1.27025036 12.491521 1.37231445 16.92504883 C1.4156494 18.84460825 1.45732552 20.76420585 1.49731445 22.68383789 C1.55505178 25.44168614 1.61873635 28.19934241 1.68359375 30.95703125 C1.70030624 31.81649857 1.71701874 32.67596588 1.73423767 33.56147766 C1.75418289 34.36208115 1.77412811 35.16268463 1.79467773 35.98754883 C1.81022202 36.6914827 1.8257663 37.39541656 1.84178162 38.12068176 C1.94481604 40.22699083 1.94481604 40.22699083 3 43 C8.51788338 42.90660525 14.03532065 42.80054369 19.55273438 42.68261719 C21.43059576 42.64428023 23.30853176 42.60943573 25.18652344 42.578125 C27.88243321 42.53257637 30.57782712 42.47456625 33.2734375 42.4140625 C34.53756973 42.39673569 34.53756973 42.39673569 35.82723999 42.37905884 C40.39020957 42.45806819 40.39020957 42.45806819 44 40 C44.2459409 37.0633979 44.37375252 34.21437888 44.4140625 31.2734375 C44.43342865 30.41062164 44.4527948 29.54780579 44.4727478 28.65884399 C44.53262204 25.89766384 44.57895998 23.13644216 44.625 20.375 C44.66317259 18.50518995 44.70222389 16.63539762 44.7421875 14.765625 C44.83832992 10.17722691 44.92233166 5.58874649 45 1 C45.33 1 45.66 1 46 1 C46.04934656 6.80239614 46.08569402 12.60467081 46.10986328 18.40722656 C46.11993627 20.38218309 46.13359521 22.35712466 46.15087891 24.33203125 C46.17507039 27.16670418 46.18646991 30.00118038 46.1953125 32.8359375 C46.20563507 33.72243988 46.21595764 34.60894226 46.22659302 35.52230835 C46.2269907 37.68285952 46.12272534 39.84293718 46 42 C44 44 44 44 42.12704468 44.24050903 C40.98787094 44.2338472 40.98787094 44.2338472 39.82568359 44.22705078 C38.53457169 44.22682419 38.53457169 44.22682419 37.21737671 44.22659302 C36.28712677 44.21627045 35.35687683 44.20594788 34.3984375 44.1953125 C33.44683746 44.1924826 32.49523743 44.18965271 31.51480103 44.18673706 C28.46807408 44.17551989 25.42163846 44.15041263 22.375 44.125 C20.31250424 44.11497218 18.25000388 44.10584599 16.1875 44.09765625 C11.12488733 44.07557554 6.0624931 44.0410353 1 44 C-0.14315747 41.71368506 -0.12112732 40.45652594 -0.11352539 37.91748047 C-0.11344986 37.07675995 -0.11337433 36.23603943 -0.11329651 35.36984253 C-0.10813522 34.46146637 -0.10297394 33.55309021 -0.09765625 32.6171875 C-0.0962413 31.68778351 -0.09482635 30.75837952 -0.09336853 29.80081177 C-0.08776053 26.82550876 -0.07520668 23.85028036 -0.0625 20.875 C-0.05748603 18.86067817 -0.05292295 16.84635516 -0.04882812 14.83203125 C-0.0377885 9.88799198 -0.02051849 4.94400865 0 0 Z " fill="#468941" transform="translate(2,112)"/>
<path d="M0 0 C0.83426514 -0.00630432 1.66853027 -0.01260864 2.52807617 -0.019104 C3.43017822 -0.01505554 4.33228027 -0.01100708 5.26171875 -0.00683594 C6.64870972 -0.00970612 6.64870972 -0.00970612 8.0637207 -0.01263428 C10.02067334 -0.0139966 11.97763499 -0.0102969 13.93457031 -0.00195312 C16.93705465 0.00874572 19.93894062 -0.00184685 22.94140625 -0.01464844 C24.83984508 -0.01332685 26.73828353 -0.01076448 28.63671875 -0.00683594 C29.5388208 -0.0108844 30.44092285 -0.01493286 31.37036133 -0.019104 C32.62175903 -0.00964752 32.62175903 -0.00964752 33.8984375 0 C34.63408936 0.00159119 35.36974121 0.00318237 36.12768555 0.00482178 C37.94921875 0.25878906 37.94921875 0.25878906 39.94921875 2.25878906 C40.18972778 4.09378052 40.18972778 4.09378052 40.17626953 6.34130859 C40.17611847 7.18202911 40.17596741 8.02274963 40.17581177 8.88894653 C40.1654892 9.79732269 40.15516663 10.70569885 40.14453125 11.64160156 C40.14170135 12.57100555 40.13887146 13.50040955 40.13595581 14.45797729 C40.12473944 17.43337756 40.09963235 20.40847941 40.07421875 23.38378906 C40.06419083 25.39810764 40.05506465 27.41243092 40.046875 29.42675781 C40.02479536 34.37088363 39.99025568 39.31478571 39.94921875 44.25878906 C39.61921875 44.25878906 39.28921875 44.25878906 38.94921875 44.25878906 C38.94921875 30.72878906 38.94921875 17.19878906 38.94921875 3.25878906 C37.95921875 3.25878906 36.96921875 3.25878906 35.94921875 3.25878906 C35.94921875 2.59878906 35.94921875 1.93878906 35.94921875 1.25878906 C23.07921875 1.25878906 10.20921875 1.25878906 -3.05078125 1.25878906 C-3.93643711 3.91575664 -4.19580745 5.54068989 -4.25610352 8.27124023 C-4.27604874 9.07184372 -4.29599396 9.8724472 -4.31654358 10.6973114 C-4.33325607 11.55677872 -4.34996857 12.41624603 -4.3671875 13.30175781 C-4.3879686 14.18535477 -4.40874969 15.06895172 -4.43016052 15.97932434 C-4.49553879 18.80156691 -4.55448653 21.62390241 -4.61328125 24.44628906 C-4.65647762 26.35971013 -4.70009227 28.2731218 -4.74414062 30.18652344 C-4.8512082 34.87718343 -4.95250877 39.5679369 -5.05078125 44.25878906 C-5.38078125 44.25878906 -5.71078125 44.25878906 -6.05078125 44.25878906 C-6.10012524 38.31397725 -6.13647407 32.36928397 -6.16064453 26.42431641 C-6.17071796 24.40085779 -6.1843772 22.37741378 -6.20166016 20.35400391 C-6.22584972 17.44983317 -6.23725074 14.54585446 -6.24609375 11.64160156 C-6.25641632 10.7332254 -6.26673889 9.82484924 -6.27737427 8.88894653 C-6.27752533 8.04822601 -6.27767639 7.20750549 -6.27783203 6.34130859 C-6.28227325 5.59962433 -6.28671448 4.85794006 -6.29129028 4.09378052 C-5.77806478 0.17806728 -3.37049184 0.00729024 0 0 Z " fill="#488A44" transform="translate(8.05078125,55.7412109375)"/>
<path d="M0 0 C12.54 0 25.08 0 38 0 C38 1.98 38 3.96 38 6 C37.505 4.515 37.505 4.515 37 3 C33.3860423 1.4793578 29.26052421 1.77583081 25.390625 1.68359375 C24.30041046 1.6524221 24.30041046 1.6524221 23.18817139 1.62062073 C20.87554009 1.55544488 18.56279907 1.4963896 16.25 1.4375 C14.67837425 1.39428434 13.10675944 1.35066908 11.53515625 1.30664062 C7.69021547 1.19979644 3.84516476 1.09843976 0 1 C0 0.67 0 0.34 0 0 Z " fill="#3F8D3A" transform="translate(63,165)"/>
<path d="M0 0 C0.99 0.66 1.98 1.32 3 2 C1.68 2.33 0.36 2.66 -1 3 C-1 16.53 -1 30.06 -1 44 C-1.33 44 -1.66 44 -2 44 C-2.04934399 38.05518819 -2.08569282 32.11049491 -2.10986328 26.16552734 C-2.11993671 24.14206873 -2.13359595 22.11862472 -2.15087891 20.09521484 C-2.17506847 17.19104411 -2.18646949 14.28706539 -2.1953125 11.3828125 C-2.20563507 10.47443634 -2.21595764 9.56606018 -2.22659302 8.63015747 C-2.22674408 7.78943695 -2.22689514 6.94871643 -2.22705078 6.08251953 C-2.231492 5.34083527 -2.23593323 4.599151 -2.24050903 3.83499146 C-2 2 -2 2 0 0 Z " fill="#42813A" transform="translate(58,2)"/>
<path d="M0 0 C-1.3125 2.4375 -1.3125 2.4375 -4 5 C-7.65884437 5.74756245 -11.27165244 5.92928996 -15 6 C-14 3 -14 3 -10.875 1.3125 C-7.20642866 -0.14581407 -3.94606007 -0.24159551 0 0 Z " fill="#C41715" transform="translate(23,0)"/>
<path d="M0 0 C0.99 0 1.98 0 3 0 C4.125 3.75 4.125 3.75 3 6 C2.34 6 1.68 6 1 6 C0.67 7.32 0.34 8.64 0 10 C-1.125 2.25 -1.125 2.25 0 0 Z " fill="#3B9037" transform="translate(57,111)"/>
<path d="M0 0 C-0.625 1.9375 -0.625 1.9375 -2 4 C-5.125 4.75 -5.125 4.75 -8 5 C-7 2 -7 2 -5.125 0.8125 C-3 0 -3 0 0 0 Z " fill="#C4595F" transform="translate(16,1)"/>
<path d="M0 0 C0.99 0.66 1.98 1.32 3 2 C1.68 2.33 0.36 2.66 -1 3 C-1 6.63 -1 10.26 -1 14 C-1.33 14 -1.66 14 -2 14 C-2.05389087 12.04196493 -2.09274217 10.08351091 -2.125 8.125 C-2.14820313 7.03445312 -2.17140625 5.94390625 -2.1953125 4.8203125 C-2 2 -2 2 0 0 Z " fill="#488742" transform="translate(58,2)"/>
<path d="M0 0 C2.5 2.3125 2.5 2.3125 5 5 C5 5.99 5 6.98 5 8 C3.0625 7.375 3.0625 7.375 1 6 C0.25 2.875 0.25 2.875 0 0 Z " fill="#A9181D" transform="translate(41,5)"/>
</svg>
